<?xml version="1.0" standalone="no"?>
<!DOCTYPE svg PUBLIC "-//W3C//DTD SVG 20010904//EN"
 "http://www.w3.org/TR/2001/REC-SVG-20010904/DTD/svg10.dtd">
<svg version="1.0" xmlns="http://www.w3.org/2000/svg"
 width="256.000000pt" height="256.000000pt" viewBox="0 0 256.000000 256.000000"
 preserveAspectRatio="xMidYMid meet">
<metadata>
Created by potrace 1.14, written by Peter Selinger 2001-2017
</metadata>
<g transform="translate(0.000000,256.000000) scale(0.100000,-0.100000)"
fill="#000000" stroke="none">
<path d="M723 1947 c-315 -316 -573 -579 -573 -585 0 -6 178 -190 395 -407
237 -236 393 -400 389 -407 -4 -7 -3 -8 5 -4 11 7 111 -86 111 -105 0 -5 5 -9
11 -9 11 0 89 -79 89 -91 0 -4 9 -11 20 -14 11 -3 20 -11 20 -16 0 -6 -4 -7
-10 -4 -5 3 -10 1 -10 -5 0 -7 7 -9 16 -6 18 7 78 -50 68 -65 -3 -5 -2 -9 3
-8 4 1 10 0 13 -1 19 -7 39 -7 34 1 -5 9 42 59 57 59 4 0 11 9 14 21 7 20 7
20 28 2 12 -9 16 -11 10 -3 -7 8 -13 17 -13 21 0 11 121 124 131 122 4 -2 6 4
3 12 -6 14 6 20 29 16 5 -1 6 3 3 8 -4 5 22 38 56 72 35 34 62 66 60 71 -1 5
1 7 6 4 11 -7 53 40 44 49 -4 4 -2 5 4 3 15 -4 74 54 67 66 -4 6 -3 8 1 4 11
-9 56 33 49 46 -3 6 -3 8 1 4 11 -9 46 23 39 35 -3 6 -1 7 4 4 13 -8 36 17 25
28 -4 5 -2 5 4 2 11 -6 50 33 46 46 -1 5 2 6 7 3 12 -8 33 18 23 29 -4 5 -2 5
4 2 13 -7 55 38 46 49 -4 4 -2 5 4 1 12 -7 70 52 66 67 -2 6 -1 8 3 4 10 -10
55 33 48 46 -3 6 -3 8 1 4 11 -9 46 23 39 35 -3 6 -2 7 4 4 11 -7 69 53 65 67
-2 6 -1 8 3 4 10 -9 55 33 48 45 -3 6 -1 7 4 4 13 -8 36 17 25 27 -4 4 -2 6 3
4 12 -3 75 51 75 65 0 14 -451 463 -461 460 -5 -2 -8 1 -6 6 3 11 -303 317
-314 313 -5 -1 -8 2 -7 6 5 13 -145 161 -155 155 -6 -3 -7 -2 -4 3 4 8 -183
204 -195 204 -1 0 -261 -258 -575 -573z"/>
<path d="M793 395 c0 -8 4 -12 9 -9 5 3 6 10 3 15 -9 13 -12 11 -12 -6z"/>
<path d="M1630 396 c7 -7 13 -7 20 0 6 6 3 10 -10 10 -13 0 -16 -4 -10 -10z"/>
<path d="M1695 391 c-3 -5 -2 -12 3 -15 5 -3 9 1 9 9 0 17 -3 19 -12 6z"/>
<path d="M1630 361 c0 -6 4 -13 10 -16 6 -3 7 1 4 9 -7 18 -14 21 -14 7z"/>
<path d="M1113 347 c0 -8 6 -14 14 -14 9 0 10 4 2 14 -6 7 -12 13 -14 13 -1 0
-2 -6 -2 -13z"/>
<path d="M1715 339 c-3 -4 2 -6 10 -5 21 3 28 13 10 13 -9 0 -18 -4 -20 -8z"/>
<path d="M807 319 c7 -7 15 -10 18 -7 3 3 -2 9 -12 12 -14 6 -15 5 -6 -5z"/>
<path d="M934 316 c1 -8 5 -18 8 -22 4 -3 5 1 4 10 -1 8 -5 18 -8 22 -4 3 -5
-1 -4 -10z"/>
<path d="M1435 311 c-3 -5 -2 -12 3 -15 5 -3 9 1 9 9 0 17 -3 19 -12 6z"/>
<path d="M1473 305 c0 -8 4 -12 9 -9 5 3 6 10 3 15 -9 13 -12 11 -12 -6z"/>
<path d="M896 302 c-3 -5 1 -9 9 -9 8 0 12 4 9 9 -3 4 -7 8 -9 8 -2 0 -6 -4
-9 -8z"/>
<path d="M1650 299 c0 -5 5 -7 10 -4 6 3 10 8 10 11 0 2 -4 4 -10 4 -5 0 -10
-5 -10 -11z"/>
<path d="M1736 298 c3 -5 10 -6 15 -3 13 9 11 12 -6 12 -8 0 -12 -4 -9 -9z"/>
<path d="M1030 277 c0 -2 6 -10 14 -16 11 -9 16 -9 22 1 4 7 4 10 -1 6 -4 -4
-14 -3 -22 3 -7 6 -13 9 -13 6z"/>
<path d="M1555 259 c-3 -4 2 -6 10 -5 21 3 28 13 10 13 -9 0 -18 -4 -20 -8z"/>
<path d="M1086 242 c-3 -5 1 -9 9 -9 8 0 12 4 9 9 -3 4 -7 8 -9 8 -2 0 -6 -4
-9 -8z"/>
<path d="M1755 160 c3 -5 8 -10 11 -10 2 0 4 5 4 10 0 6 -5 10 -11 10 -5 0 -7
-4 -4 -10z"/>
</g>
</svg>
